<?xml version="1.0" encoding="UTF-8"?>
<svg width="232px" height="232px" viewBox="0 0 232 232" version="1.1" xmlns="http://www.w3.org/2000/svg" xmlns:xlink="http://www.w3.org/1999/xlink">
    <title>Artboard Copy</title>
    <defs>
        <polygon id="path-1" points="0 0 58 0 58 8 0 8"></polygon>
    </defs>
    <g id="Artboard-Copy" stroke="none" stroke-width="1" fill="none" fill-rule="evenodd">
        <rect id="Rectangle" fill="#FC2910" transform="translate(116.000000, 116.000000) rotate(45.000000) translate(-116.000000, -116.000000) " x="29" y="29" width="174" height="174" rx="20"></rect>
        <g id="Group-10" transform="translate(26.000000, 74.000000)">
            <path d="M150.133144,13.0009545 C151.595105,12.9963599 151.892359,13.6152631 151.940984,14.9086653 C153.467166,55.212271 125.201839,87.2289135 89.2932171,93.7133841 C57.8319451,99.3947047 27.261978,85.9529712 10.7969215,59.4784305 C9.59597652,57.5472869 9.62671117,56.6660274 11.7602463,55.5701965 C15.8452024,53.472266 15.7773109,53.3371825 18.9627051,56.679352 C26.6615055,64.7577167 35.9442872,69.9984076 46.8761893,72.2479625 C48.0808041,72.4956157 49.2523906,73.1108432 51.2056464,72.791513 C42.4508584,66.5409116 37.8135961,58.5769544 38.5434294,48.0827075 C38.9649987,42.019569 41.282483,36.6759573 45.5188187,32.2756331 C54.0814004,23.3817129 67.0385783,21.4363258 77.3567048,27.4503012 C83.5050109,31.0346103 87.643638,36.2481927 89.5661591,43.1043727 C91.4565694,49.8452264 90.6235228,56.377941 87.3482184,62.6299208 C88.3340208,62.850006 88.6780654,62.2508598 89.102387,61.8943127 C100.983393,51.9077778 107.253262,39.1814358 107.692263,23.6178794 C107.774375,20.7186369 107.898231,17.8193945 107.896396,14.920152 C107.895479,13.6295066 108.157411,12.994522 109.647812,13 C123.143076,13.0459824 136.63834,13.0450635 150.133144,13.0009545 Z M64.5788997,31.0005783 C54.4869835,30.9196761 46.0271844,39.3381003 46,49.4885667 C45.972949,59.7291288 54.2213221,67.9958614 64.4708886,68 C74.563724,68.0041355 82.9017233,59.7732573 82.9991632,49.7092091 C83.096603,39.6387255 74.6717351,31.0819402 64.5788997,31.0005783 Z" id="Combined-Shape" fill="#FFFFFF"></path>
            <g id="Group-5" transform="translate(101.000000, 0.000000)">
                <mask id="mask-2" fill="white">
                    <use xlink:href="#path-1"></use>
                </mask>
                <g id="Clip-4"></g>
                <path d="M29.1943213,0.00830129768 C37.382588,0.0107285777 45.5703983,-0.00674783846 53.7582087,0.0209231538 C56.328535,0.0296613619 57.7366705,1.22728132 57.9707513,3.42736794 C58.2226278,5.79202413 56.8455206,7.64889335 54.4978676,7.90715595 C53.1463131,8.05619094 51.7719437,7.98094526 50.4076128,7.98143071 C35.6235594,7.98482891 20.8395059,7.98385799 6.05545243,7.98240163 C5.29754154,7.98240163 4.53552396,8.01541263 3.78263235,7.94502151 C1.36288434,7.71879902 -0.0867742344,6.08087046 0.004029057,3.73077794 C0.0907256669,1.48214573 1.52578271,0.0505359701 3.94781221,0.0301468179 C9.8614336,-0.0208260626 15.775055,0.00830129768 21.6886764,0.00635947366 C24.190558,0.00538856165 26.6924397,0.00587401765 29.1943213,0.00830129768" id="Fill-3" fill="#FFFFFF" mask="url(#mask-2)"></path>
            </g>
            <path d="M14.9991161,44.345652 C15.0246633,45.6290956 14.4957902,46.6760162 13.4958614,47.3101994 C10.6350162,49.125113 7.76475894,50.9329592 4.81382607,52.5768413 C3.10350411,53.5295296 1.14891446,52.7893351 0.371739857,51.1982231 C-0.426500033,49.5647066 0.0759294544,47.5985502 1.73336411,46.5398505 C4.46154278,44.7960823 7.21437231,43.0852953 10.0308459,41.5064335 C12.4573876,40.1457194 15.0040463,41.6732246 14.9991161,44.345652" id="Fill-6" fill="#FFFFFF"></path>
        </g>
    </g>
</svg>